# xmcd
#
# Track frame offsets: 
#        150
#        25269
#        45526
#        67399
#        86312
#        104012
#        132768
#        152893
#        169799
#        189004
#        207813
#        230919
#        249817
#        269629
#        300767
#
# Disc length: 4200 seconds
#
# Revision: 0
# Processed by: cddbd v1.5.2PL0 Copyright (c) Steve Scherf et al.
# Submitted via: ExactAudioCopy v0.95b4
#
DISCID=c510660f
DTITLE=Theodis Ealey - A Collection of Theodis Ealey
DYEAR=2000
DGENRE=Blues
TTITLE0=Old Times Blues
TTITLE1=Headed Back To Huntsville, Again
TTITLE2=Lil' Brown Eyes
TTITLE3=If You Leave Me, I'm Going Wit'cha
TTITLE4=Travelin Mind
TTITLE5=Looking Up At The Bottom
TTITLE6=Gimme Just A Little Sign
TTITLE7=This Time I Know
TTITLE8=Stop Doggin' Me Around
TTITLE9=Goody Sack
TTITLE10=I Wanna Be Your Friend
TTITLE11=Bluesman Lover
TTITLE12=You're On My Mind
TTITLE13=All MY Baby Left Me Was A Note, My Guitar, And A Cookie Jar
TTITLE14=A Song For MY Daughter
EXTD=
EXTT0=
EXTT1=
EXTT2=
EXTT3=
EXTT4=
EXTT5=
EXTT6=
EXTT7=
EXTT8=
EXTT9=
EXTT10=
EXTT11=
EXTT12=
EXTT13=
EXTT14=
PLAYORDER=
